<?xml version="1.0" encoding="UTF-8" standalone="no"?>
<!-- Created with Inkscape (http://www.inkscape.org/) -->

<svg
   version="1.1"
   id="svg2"
   width="191.11258"
   height="191.10675"
   viewBox="0 0 191.11258 191.10675"
   sodipodi:docname="englobe_logo.svg"
   xmlns:inkscape="http://www.inkscape.org/namespaces/inkscape"
   xmlns:sodipodi="http://sodipodi.sourceforge.net/DTD/sodipodi-0.dtd"
   xmlns="http://www.w3.org/2000/svg"
   xmlns:svg="http://www.w3.org/2000/svg">
  <defs
     id="defs6" />
  <sodipodi:namedview
     id="namedview4"
     pagecolor="#ffffff"
     bordercolor="#000000"
     borderopacity="0.25"
     inkscape:showpageshadow="2"
     inkscape:pageopacity="0.0"
     inkscape:pagecheckerboard="0"
     inkscape:deskcolor="#d1d1d1"
     showgrid="false" />
  <g
     id="g8"
     inkscape:groupmode="layer"
     inkscape:label="ink_ext_XXXXXX"
     transform="matrix(1.3333333,0,0,-1.3333333,-73.505889,264.62033)">
    <g
       id="g10"
       transform="scale(0.1)">
      <path
         d="m 1267.92,551.352 h 0.09 c 141.69,0.007 273.76,41.128 384.96,112.089 H 882.961 C 994.148,592.48 1126.23,551.359 1267.92,551.352"
         style="fill:#8ad7c1;fill-opacity:1;fill-rule:nonzero;stroke:none"
         id="path12" />
      <path
         d="m 1114.58,1317.62 c 20.35,66.07 80.46,113.93 153.38,113.93 72.92,0 133.03,-47.86 153.38,-113.93 z m 867.94,-104.76 c 15.44,201.32 -53.82,407.92 -207.79,561.89 -279.88,279.87 -733.65,279.87 -1013.531,0 -154.906,-154.91 -224.07,-363.08 -207.504,-565.56 h 112.543 c -16.875,173.68 41.203,353.27 174.227,486.29 236.105,236.11 618.905,236.11 854.995,0 105.42,-105.41 163.77,-240.08 175.05,-377.87 h -108.87 c -10.99,109.97 -58.59,216.97 -142.84,301.21 -193.76,193.76 -507.91,193.76 -701.671,0 -111.863,-111.86 -159.145,-263.85 -141.84,-409.63 h 113.117 c -18,116.83 17.989,240.38 107.985,330.37 149.989,149.98 393.159,149.98 543.149,0 62.34,-62.34 98.76,-140.79 109.27,-221.95 h -109.66 c -23.37,128.55 -135.89,226.02 -271.19,226.02 -152.23,0 -275.636,-123.41 -275.636,-275.64 0,-61.23 19.966,-117.79 53.746,-163.54 H 570.043 c 9.023,-38.67 21.18,-76.12 36.18,-112.091 H 1929.71 c 15,35.971 27.15,73.421 36.18,112.091 h -696.62 c -71.4,0 -130.73,45.1 -153.53,108.41 v 0 h 866.78"
         style="fill:#8ad7c1;fill-opacity:1;fill-rule:nonzero;stroke:none"
         id="path14" />
      <path
         d="M 750.816,771.859 H 1785.11 c 32.9,34.282 62.42,71.821 88.03,112.09 H 662.781 c 25.617,-40.269 55.141,-77.808 88.035,-112.09"
         style="fill:#8ad7c1;fill-opacity:1;fill-rule:nonzero;stroke:none"
         id="path16" />
      <path
         d="m 1267.92,551.352 h 0.1 c 141.68,0.007 273.76,41.128 384.96,112.089 H 882.965 C 994.16,592.48 1126.24,551.359 1267.92,551.352"
         style="fill:#8ad7c1;fill-opacity:1;fill-rule:nonzero;stroke:none"
         id="path18" />
      <path
         d="m 1114.59,1317.62 c 20.35,66.07 80.46,113.93 153.38,113.93 72.92,0 133.03,-47.86 153.38,-113.93 z m 867.94,-104.76 c 15.43,201.32 -53.82,407.92 -207.79,561.89 -279.88,279.87 -733.65,279.87 -1013.529,0 C 606.305,1619.84 537.133,1411.67 553.707,1209.19 h 112.539 c -16.871,173.68 41.199,353.27 174.227,486.29 236.097,236.11 618.897,236.11 854.997,0 105.42,-105.41 163.77,-240.08 175.05,-377.87 h -108.87 c -10.99,109.97 -58.6,216.97 -142.84,301.21 -193.76,193.76 -507.91,193.76 -701.669,0 C 805.273,1506.96 757.992,1354.97 775.293,1209.19 h 113.125 c -18.008,116.83 17.988,240.38 107.984,330.37 149.988,149.98 393.158,149.98 543.148,0 62.34,-62.34 98.76,-140.79 109.27,-221.95 h -109.66 c -23.37,128.55 -135.89,226.02 -271.19,226.02 -152.23,0 -275.642,-123.41 -275.642,-275.64 0,-61.23 19.972,-117.79 53.742,-163.54 H 570.051 c 9.027,-38.67 21.176,-76.12 36.179,-112.091 h 1323.49 c 15,35.971 27.15,73.421 36.17,112.091 h -696.62 c -71.39,0 -130.72,45.1 -153.52,108.41 v 0 h 866.78"
         style="fill:#8ad7c1;fill-opacity:1;fill-rule:nonzero;stroke:none"
         id="path20" />
      <path
         d="m 750.82,771.859 h 1034.3 c 32.9,34.282 62.42,71.821 88.03,112.09 H 662.793 c 25.609,-40.269 55.133,-77.808 88.027,-112.09"
         style="fill:#8ad7c1;fill-opacity:1;fill-rule:nonzero;stroke:none"
         id="path22" />
    </g>
  </g>
</svg>
