<?xml version="1.0" encoding="UTF-8" standalone="no"?>
<svg
   xmlns:dc="http://purl.org/dc/elements/1.1/"
   xmlns:cc="http://creativecommons.org/ns#"
   xmlns:rdf="http://www.w3.org/1999/02/22-rdf-syntax-ns#"
   xmlns:svg="http://www.w3.org/2000/svg"
   xmlns="http://www.w3.org/2000/svg"
   xmlns:sodipodi="http://sodipodi.sourceforge.net/DTD/sodipodi-0.dtd"
   xmlns:inkscape="http://www.inkscape.org/namespaces/inkscape"
   width="50mm"
   height="50mm"
   viewBox="0 0 50 50"
   version="1.1"
   id="svg5"
   inkscape:version="1.0.2-2 (e86c870879, 2021-01-15)"
   sodipodi:docname="insert link new.svg"
   inkscape:export-filename="bold.png"
   inkscape:export-xdpi="25.4"
   inkscape:export-ydpi="25.4">
  <metadata
     id="metadata33">
    <rdf:RDF>
      <cc:Work
         rdf:about="">
        <dc:format>image/svg+xml</dc:format>
        <dc:type
           rdf:resource="http://purl.org/dc/dcmitype/StillImage" />
      </cc:Work>
    </rdf:RDF>
  </metadata>
  <sodipodi:namedview
     id="namedview7"
     pagecolor="#ffffff"
     bordercolor="#000000"
     borderopacity="0.25"
     inkscape:showpageshadow="2"
     inkscape:pageopacity="0.0"
     inkscape:pagecheckerboard="0"
     inkscape:deskcolor="#d1d1d1"
     inkscape:document-units="mm"
     showgrid="true"
     inkscape:zoom="2.3786088"
     inkscape:cx="19.549242"
     inkscape:cy="107.62594"
     inkscape:window-width="1920"
     inkscape:window-height="1001"
     inkscape:window-x="-9"
     inkscape:window-y="-9"
     inkscape:window-maximized="1"
     inkscape:current-layer="layer1"
     showguides="true"
     inkscape:document-rotation="0">
    <inkscape:grid
       type="xygrid"
       id="grid273"
       enabled="true"
       visible="false"
       dotted="false"
       snapvisiblegridlinesonly="false" />
    <sodipodi:guide
       position="25.012182,25.066472"
       orientation="0,-1"
       id="guide10146"
       inkscape:locked="false" />
    <sodipodi:guide
       position="25.012182,25.302436"
       orientation="1,0"
       id="guide10148"
       inkscape:locked="false" />
  </sodipodi:namedview>
  <defs
     id="defs2">
    <inkscape:path-effect
       effect="knot"
       id="path-effect17629"
       is_visible="true"
       lpeversion="1"
       switcher_size="10"
       interruption_width="7"
       prop_to_stroke_width="false"
       add_stroke_width="inkscape_1.0_and_up"
       both="false"
       inverse_width="false"
       add_other_stroke_width="inkscape_1.0_and_up"
       crossing_points_vector="" />
    <inkscape:path-effect
       effect="knot"
       id="path-effect15404"
       is_visible="true"
       lpeversion="1"
       switcher_size="15"
       interruption_width="8"
       prop_to_stroke_width="false"
       add_stroke_width="inkscape_1.0_and_up"
       both="false"
       inverse_width="false"
       add_other_stroke_width="inkscape_1.0_and_up"
       crossing_points_vector="" />
    <inkscape:path-effect
       effect="knot"
       id="path-effect14639"
       is_visible="true"
       lpeversion="1"
       switcher_size="10"
       interruption_width="7"
       prop_to_stroke_width="false"
       add_stroke_width="inkscape_1.0_and_up"
       both="false"
       inverse_width="false"
       add_other_stroke_width="inkscape_1.0_and_up"
       crossing_points_vector="" />
    <inkscape:path-effect
       effect="powerclip"
       id="path-effect8591"
       is_visible="true"
       lpeversion="1"
       inverse="true"
       flatten="false"
       hide_clip="false"
       message="Use fill-rule evenodd on &lt;b&gt;fill and stroke&lt;/b&gt; dialog if no flatten result after convert clip to paths." />
    <inkscape:path-effect
       effect="powerclip"
       id="path-effect5178"
       is_visible="true"
       lpeversion="1"
       inverse="true"
       flatten="false"
       hide_clip="false"
       message="Use fill-rule evenodd on &lt;b&gt;fill and stroke&lt;/b&gt; dialog if no flatten result after convert clip to paths." />
    <clipPath
       clipPathUnits="userSpaceOnUse"
       id="clipPath8587">
      <path
         id="path8589"
         style="display:block;fill:#fcfcfc;fill-opacity:1;stroke-width:0.165453"
         d="m 14.729482,17.068133 v 0.01175 a 4.7181955,3.6178927 0 0 0 -4.347301,3.606186 4.7181955,3.6178927 0 0 0 4.347301,3.606187 v 0.01175 h 0.370955 9.065557 v -0.0011 a 4.7181955,3.6178927 0 0 0 0.03866,0.0011 4.7181955,3.6178927 0 0 0 4.718257,-3.617938 4.7181955,3.6178927 0 0 0 -4.718257,-3.617939 4.7181955,3.6178927 0 0 0 -0.03866,0.0011 v -0.0011 h -9.065557 z" />
    </clipPath>
    <clipPath
       clipPathUnits="userSpaceOnUse"
       id="clipPath8587-1">
      <path
         id="path8589-3"
         style="display:none;fill:#fcfcfc;fill-opacity:1;stroke-width:0.165453"
         d="m 14.729482,17.068133 v 0.01175 a 4.7181955,3.6178927 0 0 0 -4.347301,3.606186 4.7181955,3.6178927 0 0 0 4.347301,3.606187 v 0.01175 h 0.370955 9.065557 v -0.0011 a 4.7181955,3.6178927 0 0 0 0.03866,0.0011 4.7181955,3.6178927 0 0 0 4.718257,-3.617938 4.7181955,3.6178927 0 0 0 -4.718257,-3.617939 4.7181955,3.6178927 0 0 0 -0.03866,0.0011 v -0.0011 h -9.065557 z" />
      <path
         id="lpe_path-effect8591-4"
         style="fill:#fcfcfc;fill-opacity:1;stroke-width:0.165453"
         class="powerclip"
         d="M 0.8988647,8.685986 H 38.406229 V 32.686168 H 0.8988647 Z m 13.8306173,8.382147 v 0.01175 a 4.7181955,3.6178927 0 0 0 -4.347301,3.606186 4.7181955,3.6178927 0 0 0 4.347301,3.606187 v 0.01175 h 0.370955 9.065557 v -0.0011 a 4.7181955,3.6178927 0 0 0 0.03866,0.0011 4.7181955,3.6178927 0 0 0 4.718257,-3.617938 4.7181955,3.6178927 0 0 0 -4.718257,-3.617939 4.7181955,3.6178927 0 0 0 -0.03866,0.0011 v -0.0011 h -9.065557 z" />
    </clipPath>
    <inkscape:path-effect
       effect="powerclip"
       id="path-effect8591-8"
       is_visible="true"
       lpeversion="1"
       inverse="true"
       flatten="false"
       hide_clip="false"
       message="Use fill-rule evenodd on &lt;b&gt;fill and stroke&lt;/b&gt; dialog if no flatten result after convert clip to paths." />
    <clipPath
       clipPathUnits="userSpaceOnUse"
       id="clipath_lpe_path-effect8591-8">
      <path
         id="path8632"
         style="display:block;fill:#fcfcfc;fill-opacity:1;stroke-width:0.165453"
         d="m 14.729482,17.068133 v 0.01175 a 4.7181955,3.6178927 0 0 0 -4.347301,3.606186 4.7181955,3.6178927 0 0 0 4.347301,3.606187 v 0.01175 h 0.370955 9.065557 v -0.0011 a 4.7181955,3.6178927 0 0 0 0.03866,0.0011 4.7181955,3.6178927 0 0 0 4.718257,-3.617938 4.7181955,3.6178927 0 0 0 -4.718257,-3.617939 4.7181955,3.6178927 0 0 0 -0.03866,0.0011 v -0.0011 h -9.065557 z" />
    </clipPath>
    <clipPath
       clipPathUnits="userSpaceOnUse"
       id="clipPath8587-5">
      <path
         id="path8589-4"
         style="display:none;fill:#fcfcfc;fill-opacity:1;stroke-width:0.165453"
         d="m 14.729482,17.068133 v 0.01175 a 4.7181955,3.6178927 0 0 0 -4.347301,3.606186 4.7181955,3.6178927 0 0 0 4.347301,3.606187 v 0.01175 h 0.370955 9.065557 v -0.0011 a 4.7181955,3.6178927 0 0 0 0.03866,0.0011 4.7181955,3.6178927 0 0 0 4.718257,-3.617938 4.7181955,3.6178927 0 0 0 -4.718257,-3.617939 4.7181955,3.6178927 0 0 0 -0.03866,0.0011 v -0.0011 h -9.065557 z" />
      <path
         id="lpe_path-effect8591-6"
         style="fill:#fcfcfc;fill-opacity:1;stroke-width:0.165453"
         class="powerclip"
         d="M 0.8988647,8.685986 H 38.406229 V 32.686168 H 0.8988647 Z m 13.8306173,8.382147 v 0.01175 a 4.7181955,3.6178927 0 0 0 -4.347301,3.606186 4.7181955,3.6178927 0 0 0 4.347301,3.606187 v 0.01175 h 0.370955 9.065557 v -0.0011 a 4.7181955,3.6178927 0 0 0 0.03866,0.0011 4.7181955,3.6178927 0 0 0 4.718257,-3.617938 4.7181955,3.6178927 0 0 0 -4.718257,-3.617939 4.7181955,3.6178927 0 0 0 -0.03866,0.0011 v -0.0011 h -9.065557 z" />
    </clipPath>
    <inkscape:path-effect
       effect="powerclip"
       id="path-effect8591-5"
       is_visible="true"
       lpeversion="1"
       inverse="true"
       flatten="false"
       hide_clip="false"
       message="Use fill-rule evenodd on &lt;b&gt;fill and stroke&lt;/b&gt; dialog if no flatten result after convert clip to paths." />
    <clipPath
       clipPathUnits="userSpaceOnUse"
       id="clipath_lpe_path-effect8591-5">
      <path
         id="path9414"
         style="display:block;fill:#fcfcfc;fill-opacity:1;stroke-width:0.165453"
         d="m 14.729482,17.068133 v 0.01175 a 4.7181955,3.6178927 0 0 0 -4.347301,3.606186 4.7181955,3.6178927 0 0 0 4.347301,3.606187 v 0.01175 h 0.370955 9.065557 v -0.0011 a 4.7181955,3.6178927 0 0 0 0.03866,0.0011 4.7181955,3.6178927 0 0 0 4.718257,-3.617938 4.7181955,3.6178927 0 0 0 -4.718257,-3.617939 4.7181955,3.6178927 0 0 0 -0.03866,0.0011 v -0.0011 h -9.065557 z" />
    </clipPath>
    <inkscape:path-effect
       effect="knot"
       id="path-effect14639-0"
       is_visible="true"
       lpeversion="1"
       switcher_size="15"
       interruption_width="3"
       prop_to_stroke_width="false"
       add_stroke_width="inkscape_1.0_and_up"
       both="false"
       inverse_width="false"
       add_other_stroke_width="inkscape_1.0_and_up"
       crossing_points_vector="" />
    <inkscape:path-effect
       effect="knot"
       id="path-effect14639-6"
       is_visible="true"
       lpeversion="1"
       switcher_size="10"
       interruption_width="7"
       prop_to_stroke_width="false"
       add_stroke_width="inkscape_1.0_and_up"
       both="false"
       inverse_width="false"
       add_other_stroke_width="inkscape_1.0_and_up"
       crossing_points_vector="" />
    <filter
       inkscape:collect="always"
       style="color-interpolation-filters:sRGB"
       id="filter894"
       x="-8.8213246e-05"
       width="1.0001764"
       y="-0.0001872728"
       height="1.0003745">
      <feGaussianBlur
         inkscape:collect="always"
         stdDeviation="0.0015654836"
         id="feGaussianBlur896" />
    </filter>
  </defs>
  <g
     inkscape:label="Layer 1"
     inkscape:groupmode="layer"
     id="layer1">
    <path
       id="path17656"
       style="color:#000000;fill:#777777;fill-opacity:1;stroke-linecap:round;filter:url(#filter894)"
       sodipodi:type="inkscape:offset"
       inkscape:radius="2.1134548"
       inkscape:original="M 28.039062 18.306641 C 24.559054 18.306641 21.714844 21.148897 21.714844 24.628906 C 21.714845 26.021188 22.167491 27.320947 22.933594 28.367188 A 1.322915 1.322915 0 0 0 24.783203 28.652344 A 1.322915 1.322915 0 0 0 25.068359 26.804688 C 24.623142 26.196672 24.361328 25.453065 24.361328 24.628906 C 24.361328 22.56892 25.979076 20.951172 28.039062 20.951172 L 38.039062 20.951172 C 40.099049 20.951172 41.714844 22.56892 41.714844 24.628906 C 41.714844 26.688892 40.099049 28.306641 38.039062 28.306641 L 30.705078 28.306641 A 1.322915 1.322915 0 0 0 29.382812 29.628906 A 1.322915 1.322915 0 0 0 30.705078 30.951172 L 38.039062 30.951172 C 41.519073 30.951172 44.361328 28.108914 44.361328 24.628906 C 44.361328 21.148897 41.519071 18.306641 38.039062 18.306641 L 28.039062 18.306641 z M 12.318359 21.496094 C 8.8383519 21.496094 5.9960937 24.340304 5.9960938 27.820312 C 5.9960938 31.300321 8.8383519 34.142578 12.318359 34.142578 L 22.318359 34.142578 C 25.798368 34.142578 28.640625 31.300324 28.640625 27.820312 C 28.640625 26.42803 28.189932 25.126316 27.423828 24.080078 A 1.322915 1.322915 0 0 0 25.574219 23.794922 A 1.322915 1.322915 0 0 0 25.289062 25.644531 C 25.734279 26.252547 25.996094 26.996153 25.996094 27.820312 C 25.996094 29.880298 24.378345 31.496094 22.318359 31.496094 L 12.318359 31.496094 C 10.258373 31.496094 8.6406251 29.880301 8.640625 27.820312 C 8.640625 25.760327 10.258373 24.142578 12.318359 24.142578 L 19.650391 24.142578 A 1.322915 1.322915 0 0 0 20.974609 22.820312 A 1.322915 1.322915 0 0 0 19.650391 21.496094 L 12.318359 21.496094 z "
       d="m 28.039062,16.193359 c -2.838668,0 -5.243028,1.520064 -6.77539,3.69336 -0.497141,-0.290893 -1.033046,-0.504098 -1.613281,-0.503907 h -7.332032 c -4.6315579,0 -8.4355466,3.806732 -8.4355465,8.4375 0,4.63077 3.8047793,8.435547 8.4355465,8.435547 h 10 c 2.838669,0 5.243597,-1.520016 6.775391,-3.693359 0.495953,0.289836 1.030688,0.501669 1.609375,0.501953 a 2.1136662,2.1136662 0 0 0 0.002,0 h 7.333984 c 4.630771,0 8.435547,-3.804779 8.435547,-8.435547 0,-4.630769 -3.804778,-8.435547 -8.435547,-8.435547 z m 1.208985,6.871094 h 8.791015 c 0.953496,0 1.5625,0.609624 1.5625,1.564453 0,0.95483 -0.609005,1.564453 -1.5625,1.564453 h -7.333984 a 2.1136662,2.1136662 0 0 0 -0.002,0 c -0.07055,3.5e-5 -0.133162,0.03994 -0.203125,0.04492 -0.222455,-1.151275 -0.609947,-2.237009 -1.251953,-3.173828 z m -9.390625,3.146485 c 0.223362,1.151249 0.610827,2.236625 1.251953,3.171874 h -8.791016 c -0.954831,0 -1.564453,-0.609001 -1.564453,-1.5625 0,-0.953492 0.61096,-1.564453 1.564453,-1.564453 h 7.332032 c 0.07181,2.4e-5 0.135833,-0.03983 0.207031,-0.04492 z"
       transform="matrix(1.173935,0,0,1.1775916,-4.5581695,-5.8818792)" />
    <path
       style="color:#000000;fill:#ffffff;stroke-linecap:round;filter:url(#filter894);fill-opacity:1"
       d="m 28.039062,18.30664 c -3.480008,0 -6.324219,2.842257 -6.324219,6.322266 1e-6,1.392282 0.452647,2.692043 1.21875,3.738281 a 1.322915,1.322915 0 0 0 1.84961,0.285156 1.322915,1.322915 0 0 0 0.285156,-1.847656 c -0.445217,-0.608016 -0.707031,-1.351622 -0.707031,-2.175781 0,-2.059986 1.617748,-3.677735 3.677734,-3.677735 h 10 c 2.059986,0 3.675781,1.617749 3.675781,3.677735 0,2.059986 -1.615795,3.677734 -3.675781,3.677734 h -7.333984 a 1.322915,1.322915 0 0 0 -1.322266,1.322266 1.322915,1.322915 0 0 0 1.322266,1.322265 h 7.333984 c 3.480009,0 6.322266,-2.842257 6.322266,-6.322265 0,-3.480009 -2.842257,-6.322266 -6.322266,-6.322266 z m -15.720703,3.189453 c -3.4800087,0 -6.3222656,2.84421 -6.3222656,6.324219 0,3.480009 2.8422569,6.322266 6.3222656,6.322266 h 10 c 3.480009,0 6.322266,-2.842257 6.322266,-6.322266 0,-1.392282 -0.450693,-2.693996 -1.216797,-3.740234 a 1.322915,1.322915 0 0 0 -1.84961,-0.285157 1.322915,1.322915 0 0 0 -0.285156,1.84961 c 0.445217,0.608016 0.707031,1.351622 0.707031,2.175781 0,2.059986 -1.617748,3.675781 -3.677734,3.675781 h -10 c -2.059986,0 -3.6777343,-1.615795 -3.6777343,-3.675781 0,-2.059986 1.6177483,-3.677734 3.6777343,-3.677734 h 7.332031 a 1.322915,1.322915 0 0 0 1.324219,-1.322266 1.322915,1.322915 0 0 0 -1.324219,-1.324219 z"
       id="path17625"
       transform="matrix(1.173935,0,0,1.1775916,-4.5581695,-5.8818792)" />
  </g>
</svg>
